<svg width="34" height="49" viewBox="0 0 34 49" fill="none" xmlns="http://www.w3.org/2000/svg">
<path fill-rule="evenodd" clip-rule="evenodd" d="M8.15778 4.42148L2.48484 7.72332C0.946383 8.61875 0 10.2646 0 12.0447V18.7088V27.0357C0 27.7786 0.419771 28.4578 1.0843 28.79V28.79C7.36559 31.9299 14.9765 36.3212 16.1677 37.4922C17.8323 39.1292 18.6776 41.5476 18.3316 43.6849C18.036 45.5111 16.8723 46.6588 15.6323 46.3465C13.7821 45.8809 13.183 42.4256 14.4167 39.3334C15.0618 37.7165 15.0575 37.6751 14.1765 36.9599C13.6835 36.5594 13.1374 36.2317 12.9628 36.2317C12.7883 36.2317 12.3216 37.0747 11.9253 38.1045C11.0356 40.4164 10.968 44.6417 11.7944 46.2499C13.0662 48.7243 15.9472 49.7068 18.2719 48.459C21.1296 46.9253 21.9332 41.8448 19.9353 37.9432C18.538 35.2138 16.6435 33.7625 9.43551 29.9003C6.08394 28.104 3.24188 26.486 3.11961 26.3042C2.99735 26.1221 2.86093 22.5595 2.81571 18.3874L2.76557 13.7359C2.74604 11.9243 3.70802 10.2439 5.28009 9.34338L9.52475 6.91204L14.5686 4.02321C15.6545 3.40127 16.985 3.38623 18.0847 3.98345V3.98345C19.0578 4.51216 22.1094 6.2477 24.8665 7.84013L27.3798 9.29169C28.9264 10.185 29.8791 11.8354 29.8791 13.6214V18.5566V23.2891C29.8791 25.1825 28.8097 26.9134 27.1164 27.7606L23.4178 29.6113L18.4682 32.0875C17.7313 32.4562 17.5819 33.4435 18.1767 34.0136V34.0136V34.0136C18.9069 34.7133 20.0011 34.8715 20.8995 34.4073L26.204 31.6666L30.3059 29.547C31.9671 28.6885 33.0105 26.9749 33.0105 25.105V18.6871V12.0573C33.0105 10.304 32.077 8.68326 30.5604 7.80346V7.80346C24.8053 4.46591 20.4736 2.15048 18.1726 0.951522C16.9883 0.334414 15.6238 0.288389 14.4399 0.906353C13.2139 1.54634 11.2473 2.62341 8.15778 4.42148ZM12.1172 10.1801C6.62333 13.4327 7.07663 12.6852 7.07663 18.4899C7.07663 22.0446 7.22052 23.6319 7.56806 23.9039C7.83855 24.1161 9.29791 24.9625 10.8115 25.7858C12.3251 26.6086 14.202 27.6853 14.982 28.1781V28.1781C15.8544 28.7293 16.9603 28.7521 17.8547 28.2374L20.9724 26.4434V26.4434C23.8011 24.8155 25.546 21.8017 25.5493 18.538L25.5494 18.4497L25.5496 18.2647C25.5526 15.0578 23.8553 12.0897 21.0899 10.4659V10.4659C20.9028 10.3561 20.7164 10.2491 20.5318 10.1452C17.9075 8.66869 14.7083 8.64605 12.1172 10.1801V10.1801ZM13.2687 12.8729L12.7276 13.1843C11.1773 14.0766 10.2218 15.7291 10.2218 17.5178V18.4564V20.8413C10.2218 21.7304 10.7135 22.5467 11.4995 22.9624V22.9624C12.2025 23.3342 13.6107 24.1133 14.6294 24.694L14.8038 24.7934C15.8451 25.3867 17.1206 25.393 18.1677 24.81V24.81C19.0951 24.2935 20.5238 23.4525 21.3423 22.9408V22.9408C22.2641 22.3648 22.8108 21.3428 22.7782 20.2564L22.7183 18.2613L22.6923 17.3938C22.6388 15.6101 21.6388 13.9902 20.0683 13.143L19.4607 12.8153L18.7681 12.4418C17.2435 11.6196 15.4019 11.6451 13.9006 12.5092L13.2687 12.8729Z" fill="#FF7000"/>
</svg>
