<svg width="651" height="560" viewBox="0 0 651 560" fill="none" xmlns="http://www.w3.org/2000/svg">
<g opacity="0.8">
<path d="M147.111 164.394C153.374 164.394 158.451 164.082 158.451 163.697C158.451 163.313 153.374 163.001 147.111 163.001C140.848 163.001 135.771 163.313 135.771 163.697C135.771 164.082 140.848 164.394 147.111 164.394Z" fill="#805CFF" fill-opacity="0.3"/>
<path d="M70.0773 147.224L169.214 147.224C178.863 147.224 186.685 139.402 186.685 129.752V73.7234C186.685 64.0743 178.863 56.2521 169.214 56.2521L70.0773 56.2521C60.4282 56.2521 52.606 64.0743 52.606 73.7234V129.752C52.606 139.402 60.4282 147.224 70.0773 147.224Z" fill="#805CFF" fill-opacity="0.3"/>
<path d="M151.925 163.697H142.542L123.477 118.525H137.836L151.925 163.697Z" fill="#805CFF" fill-opacity="0.3"/>
<path d="M189.509 97.1316H188.882V101.738H189.509V97.1316Z" fill="#805CFF" fill-opacity="0.3"/>
<path opacity="0.2" d="M189.509 97.1316H188.882V101.738H189.509V97.1316Z" fill="#805CFF" fill-opacity="0.3"/>
<path d="M189.509 77.4951H188.882V93.9875H189.509V77.4951Z" fill="#805CFF" fill-opacity="0.3"/>
<path opacity="0.2" d="M189.509 77.4951H188.882V93.9875H189.509V77.4951Z" fill="#805CFF" fill-opacity="0.3"/>
<path d="M109.777 53.428H101.268V54.0555H109.777V53.428Z" fill="#805CFF" fill-opacity="0.3"/>
<path opacity="0.2" d="M109.777 53.428H101.268V54.0555H109.777V53.428Z" fill="#805CFF" fill-opacity="0.3"/>
<path d="M177.743 118.525L151.906 163.697L132.84 118.525H177.743Z" fill="#805CFF" fill-opacity="0.3"/>
<path opacity="0.2" d="M177.749 118.525L151.912 163.697L132.847 118.525H177.749Z" fill="#805CFF" fill-opacity="0.3"/>
<path d="M77.9658 147.224H169.214C178.863 147.224 186.685 139.402 186.685 129.752V73.7234C186.685 64.0743 178.863 56.2521 169.214 56.2521L77.9658 56.2521C68.3167 56.2521 60.4944 64.0743 60.4944 73.7234L60.4944 129.752C60.4944 139.402 68.3167 147.224 77.9658 147.224Z" fill="#805CFF" fill-opacity="0.3"/>
<path opacity="0.2" d="M77.9658 147.224H169.214C178.863 147.224 186.685 139.402 186.685 129.752V73.7234C186.685 64.0743 178.863 56.2521 169.214 56.2521L77.9658 56.2521C68.3167 56.2521 60.4944 64.0743 60.4944 73.7234L60.4944 129.752C60.4944 139.402 68.3167 147.224 77.9658 147.224Z" fill="#805CFF" fill-opacity="0.3"/>
<path opacity="0.7" d="M109.533 147.224H92.8394L110.499 56.2521H127.198L109.533 147.224Z" fill="#805CFF" fill-opacity="0.3"/>
<path opacity="0.7" d="M124.613 147.224H115.118L132.784 56.2521H142.272L124.613 147.224Z" fill="#805CFF" fill-opacity="0.3"/>
<path d="M164.049 85.6032H117.66C116.406 85.558 115.218 85.0282 114.347 84.1251C113.476 83.2221 112.989 82.0163 112.989 80.7615C112.989 79.5068 113.476 78.301 114.347 77.398C115.218 76.4949 116.406 75.965 117.66 75.9199H164.049C164.7 75.8965 165.348 76.0044 165.956 76.2371C166.564 76.4699 167.119 76.8228 167.587 77.2747C168.056 77.7266 168.428 78.2682 168.683 78.8673C168.937 79.4664 169.068 80.1106 169.068 80.7615C169.068 81.4124 168.937 82.0567 168.683 82.6558C168.428 83.2549 168.056 83.7965 167.587 84.2484C167.119 84.7003 166.564 85.0532 165.956 85.286C165.348 85.5187 164.7 85.6266 164.049 85.6032Z" fill="#805CFF" fill-opacity="0.3"/>
<path d="M101.763 85.6032H80.7525C79.4986 85.558 78.3111 85.0282 77.4399 84.1251C76.5688 83.2221 76.082 82.0163 76.082 80.7615C76.082 79.5068 76.5688 78.301 77.4399 77.398C78.3111 76.4949 79.4986 75.965 80.7525 75.9199H101.763C102.414 75.8965 103.062 76.0044 103.67 76.2371C104.278 76.4699 104.833 76.8228 105.301 77.2747C105.77 77.7266 106.142 78.2682 106.397 78.8673C106.651 79.4664 106.782 80.1106 106.782 80.7615C106.782 81.4124 106.651 82.0567 106.397 82.6558C106.142 83.2549 105.77 83.7965 105.301 84.2484C104.833 84.7003 104.278 85.0532 103.67 85.286C103.062 85.5187 102.414 85.6266 101.763 85.6032Z" fill="#805CFF" fill-opacity="0.3"/>
<path d="M164.049 106.012H85.6792C84.4253 105.966 83.2378 105.437 82.3667 104.534C81.4956 103.631 81.0088 102.425 81.0088 101.17C81.0088 99.9153 81.4956 98.7094 82.3667 97.8064C83.2378 96.9033 84.4253 96.3735 85.6792 96.3283H164.049C164.7 96.3049 165.348 96.4128 165.956 96.6456C166.564 96.8783 167.119 97.2312 167.587 97.6831C168.056 98.135 168.428 98.6767 168.683 99.2758C168.937 99.8749 169.069 100.519 169.069 101.17C169.069 101.821 168.937 102.465 168.683 103.064C168.428 103.663 168.056 104.205 167.587 104.657C167.119 105.109 166.564 105.462 165.956 105.694C165.348 105.927 164.7 106.035 164.049 106.012Z" fill="#805CFF" fill-opacity="0.3"/>
<path d="M164.049 126.414H127.744C126.49 126.369 125.303 125.839 124.432 124.936C123.561 124.033 123.074 122.827 123.074 121.572C123.074 120.317 123.561 119.112 124.432 118.209C125.303 117.305 126.49 116.776 127.744 116.73H164.049C164.699 116.707 165.348 116.815 165.956 117.048C166.564 117.28 167.118 117.633 167.587 118.085C168.055 118.537 168.428 119.079 168.682 119.678C168.937 120.277 169.068 120.921 169.068 121.572C169.068 122.223 168.937 122.867 168.682 123.466C168.428 124.065 168.055 124.607 167.587 125.059C167.118 125.511 166.564 125.864 165.956 126.097C165.348 126.329 164.699 126.437 164.049 126.414Z" fill="#805CFF" fill-opacity="0.3"/>
<path opacity="0.1" d="M83.1558 56.2333C83.1558 56.2333 76.2149 93.7616 76.2149 109.614C76.2149 125.874 81.9509 147.205 81.9509 147.205H63.6197L62.4085 126.615C61.267 107.358 63.1732 88.0425 68.0566 69.3808L71.4956 56.2019L83.1558 56.2333Z" fill="#805CFF" fill-opacity="0.3"/>
</g>
<path d="M431.378 242.554C613.983 271.536 403.058 587.901 265.043 413.664C127.028 239.427 200.802 362.083 66.6148 281.105C-67.5722 200.126 200.404 -12.525 236.39 142.551C272.376 297.627 248.772 213.572 431.378 242.554Z" fill="#D5C9FF" fill-opacity="0.3"/>
<rect x="84.6631" y="33.7008" width="2.46591" height="10.6856" rx="1.23295" fill="#FF805C"/>
<rect x="91.2388" y="37.8105" width="2.46591" height="10.6856" rx="1.23295" transform="rotate(90 91.2388 37.8105)" fill="#FF805C"/>
<rect x="494.004" y="471.811" width="2.46591" height="10.6856" rx="1.23295" fill="#FF805C"/>
<rect x="500.58" y="475.92" width="2.46591" height="10.6856" rx="1.23295" transform="rotate(90 500.58 475.92)" fill="#FF805C"/>
<rect x="10.4326" y="221.932" width="6.25962" height="27.125" rx="3.12981" fill="#805CFF"/>
<rect x="27.125" y="232.365" width="6.25962" height="27.125" rx="3.12981" transform="rotate(90 27.125 232.365)" fill="#805CFF"/>
<rect x="146.88" y="227.686" width="6.25962" height="27.125" rx="3.12981" fill="#FF805C"/>
<rect x="163.572" y="238.118" width="6.25962" height="27.125" rx="3.12981" transform="rotate(90 163.572 238.118)" fill="#FF805C"/>
<rect x="527.452" y="144.667" width="6.25962" height="27.125" rx="3.12981" fill="#805CFF"/>
<rect x="544.144" y="155.099" width="6.25962" height="27.125" rx="3.12981" transform="rotate(90 544.144 155.099)" fill="#805CFF"/>
<rect x="382.152" y="176.724" width="5.88024" height="25.4811" rx="2.94012" fill="#92FFAA"/>
<rect x="397.833" y="186.524" width="5.88025" height="25.4811" rx="2.94012" transform="rotate(90 397.833 186.524)" fill="#92FFAA"/>
<circle cx="14.7955" cy="14.7955" r="12.2955" transform="matrix(-1 0 0 1 134.803 360.845)" stroke="#FF805C" stroke-width="5"/>
<circle cx="11.5076" cy="11.5076" r="9.00758" transform="matrix(-1 0 0 1 614.833 266.318)" stroke="#FC56BC" stroke-width="5"/>
<circle cx="11.5076" cy="11.5076" r="9.00758" transform="matrix(-1 0 0 1 196.451 0)" stroke="#FC56BC" stroke-width="5"/>
<circle cx="11.5076" cy="11.5076" r="9.00758" transform="matrix(-1 0 0 1 373.174 380.572)" stroke="#FC56BC" stroke-width="5"/>
<circle cx="11.5076" cy="11.5076" r="9.00758" transform="matrix(-1 0 0 1 438.932 73.9773)" stroke="#3DAA55" stroke-width="5"/>
<g opacity="0.8">
<path d="M94.5051 192.341C100.768 192.341 105.845 192.029 105.845 191.644C105.845 191.26 100.768 190.948 94.5051 190.948C88.2422 190.948 83.165 191.26 83.165 191.644C83.165 192.029 88.2422 192.341 94.5051 192.341Z" fill="#E6E6E6"/>
<path d="M17.4714 175.171L116.608 175.171C126.257 175.171 134.079 167.349 134.079 157.699V101.67C134.079 92.0213 126.257 84.1991 116.608 84.1991L17.4714 84.1991C7.82221 84.1991 0 92.0213 0 101.67V157.699C0 167.349 7.82221 175.171 17.4714 175.171Z" fill="#263238"/>
<path d="M99.3181 191.644H89.936L70.8706 146.472H85.2293L99.3181 191.644Z" fill="#263238"/>
<path d="M136.903 125.079H136.275V129.685H136.903V125.079Z" fill="#3DAA55"/>
<path opacity="0.2" d="M136.903 125.079H136.275V129.685H136.903V125.079Z" fill="black"/>
<path d="M136.903 105.442H136.275V121.935H136.903V105.442Z" fill="#3DAA55"/>
<path opacity="0.2" d="M136.903 105.442H136.275V121.935H136.903V105.442Z" fill="black"/>
<path d="M57.1714 81.375H48.6616V82.0026H57.1714V81.375Z" fill="#3DAA55"/>
<path opacity="0.2" d="M57.1714 81.375H48.6616V82.0026H57.1714V81.375Z" fill="black"/>
<path d="M125.137 146.472L99.2998 191.644L80.2344 146.472H125.137Z" fill="#3DAA55"/>
<path opacity="0.2" d="M125.142 146.472L99.3056 191.644L80.2402 146.472H125.142Z" fill="black"/>
<path d="M25.3594 175.171H116.607C126.256 175.171 134.079 167.348 134.079 157.699V101.67C134.079 92.0212 126.256 84.199 116.607 84.199L25.3594 84.199C15.7102 84.199 7.88799 92.0212 7.88799 101.67L7.88799 157.699C7.88799 167.348 15.7102 175.171 25.3594 175.171Z" fill="#3DAA55"/>
<path opacity="0.2" d="M25.3594 175.171H116.607C126.256 175.171 134.079 167.348 134.079 157.699V101.67C134.079 92.0212 126.256 84.199 116.607 84.199L25.3594 84.199C15.7102 84.199 7.88799 92.0212 7.88799 101.67L7.88799 157.699C7.88799 167.348 15.7102 175.171 25.3594 175.171Z" fill="black"/>
<path opacity="0.7" d="M56.9261 175.171H40.2329L57.8926 84.199H74.5921L56.9261 175.171Z" fill="#3DAA55"/>
<path opacity="0.7" d="M72.0063 175.171H62.5112L80.1772 84.199H89.6659L72.0063 175.171Z" fill="#3DAA55"/>
<path d="M111.443 113.55H65.0538C63.7998 113.505 62.6123 112.975 61.7412 112.072C60.8701 111.169 60.3833 109.963 60.3833 108.709C60.3833 107.454 60.8701 106.248 61.7412 105.345C62.6123 104.442 63.7998 103.912 65.0538 103.867H111.443C112.094 103.843 112.742 103.951 113.35 104.184C113.958 104.417 114.513 104.77 114.981 105.222C115.45 105.674 115.822 106.215 116.077 106.814C116.331 107.413 116.462 108.058 116.462 108.709C116.462 109.359 116.331 110.004 116.077 110.603C115.822 111.202 115.45 111.744 114.981 112.195C114.513 112.647 113.958 113 113.35 113.233C112.742 113.466 112.094 113.574 111.443 113.55Z" fill="white"/>
<path d="M49.1574 113.55H28.1465C26.8926 113.505 25.7051 112.975 24.834 112.072C23.9629 111.169 23.4761 109.963 23.4761 108.709C23.4761 107.454 23.9629 106.248 24.834 105.345C25.7051 104.442 26.8926 103.912 28.1465 103.867H49.1574C49.8079 103.843 50.4564 103.951 51.0643 104.184C51.6721 104.417 52.2268 104.77 52.6953 105.222C53.1638 105.674 53.5364 106.215 53.7909 106.814C54.0454 107.413 54.1765 108.058 54.1765 108.709C54.1765 109.359 54.0454 110.004 53.7909 110.603C53.5364 111.202 53.1638 111.744 52.6953 112.195C52.2268 112.647 51.6721 113 51.0643 113.233C50.4564 113.466 49.8079 113.574 49.1574 113.55Z" fill="white"/>
<path d="M111.443 133.959H33.0728C31.8189 133.913 30.6314 133.384 29.7603 132.48C28.8891 131.577 28.4023 130.372 28.4023 129.117C28.4023 127.862 28.8891 126.656 29.7603 125.753C30.6314 124.85 31.8189 124.32 33.0728 124.275H111.443C112.094 124.252 112.742 124.36 113.35 124.592C113.958 124.825 114.512 125.178 114.981 125.63C115.449 126.082 115.822 126.624 116.077 127.223C116.331 127.822 116.462 128.466 116.462 129.117C116.462 129.768 116.331 130.412 116.077 131.011C115.822 131.61 115.449 132.152 114.981 132.604C114.512 133.056 113.958 133.409 113.35 133.641C112.742 133.874 112.094 133.982 111.443 133.959Z" fill="white"/>
<path d="M111.443 154.361H75.1382C73.8843 154.316 72.6968 153.786 71.8257 152.883C70.9546 151.98 70.4678 150.774 70.4678 149.519C70.4678 148.264 70.9546 147.059 71.8257 146.156C72.6968 145.252 73.8843 144.723 75.1382 144.677H111.443C112.093 144.654 112.742 144.762 113.35 144.995C113.958 145.227 114.512 145.58 114.981 146.032C115.449 146.484 115.822 147.026 116.076 147.625C116.331 148.224 116.462 148.868 116.462 149.519C116.462 150.17 116.331 150.814 116.076 151.413C115.822 152.012 115.449 152.554 114.981 153.006C114.512 153.458 113.958 153.811 113.35 154.044C112.742 154.276 112.093 154.384 111.443 154.361Z" fill="white"/>
<path opacity="0.1" d="M30.5498 84.1802C30.5498 84.1802 23.609 121.709 23.609 137.561C23.609 153.821 29.3449 175.152 29.3449 175.152H11.0138L9.80256 154.562C8.66109 135.305 10.5672 115.989 15.4506 97.3277L18.8897 84.1488L30.5498 84.1802Z" fill="black"/>
</g>
<path d="M172.356 293.351C163.445 300.166 158.247 310.845 158.663 322.055C158.94 329.496 161.283 338.509 167.615 348.884C187.122 380.843 211.15 363.987 229.042 357.693C247.957 351.039 268.174 341.839 282.589 334.065C288.92 330.652 287.438 327.978 287.438 327.978C287.438 327.978 244.31 251.282 238.52 248.86C233.791 246.882 188.719 280.838 172.355 293.351H172.356Z" fill="#FF805C"/>
<path d="M203.058 359.042C202.966 360.31 228.742 444.635 237.376 448.659C246.011 452.685 272.325 443.113 273.359 436.812C274.394 430.511 252.306 342.204 252.306 342.204L203.058 359.042Z" fill="#FF805C"/>
<path d="M282.369 332.466C309.179 322.063 336.932 331.223 336.932 331.223C319.837 317.228 309.046 296.455 294.545 271.974C274.047 237.37 269.755 197.309 269.23 197.323C269.173 223.795 238.52 248.859 238.52 248.859C238.52 248.859 217.158 269.256 239.564 305.506C261.969 341.756 282.369 332.464 282.369 332.464V332.466Z" fill="#FF805C"/>
<path opacity="0.8" d="M282.369 332.466C309.179 322.063 336.932 331.223 336.932 331.223C319.837 317.228 309.046 296.455 294.545 271.974C274.047 237.37 269.755 197.309 269.23 197.323C269.173 223.795 238.52 248.859 238.52 248.859C238.52 248.859 217.158 269.256 239.564 305.506C261.969 341.756 282.369 332.464 282.369 332.464V332.466Z" fill="white"/>
<path opacity="0.3" d="M253.735 347.954L220.444 361.108L255.678 355.876L253.735 347.954Z" fill="black"/>
<path d="M245.438 368.914L253.29 393.184C253.29 393.184 258.819 392.831 266.041 390.381L271.575 387.632L269.861 382.533C269.861 382.533 260.039 379.581 256.258 366.923L245.437 368.915L245.438 368.914Z" fill="#263238"/>
<path opacity="0.3" d="M266.042 390.38L263.772 384.159C263.772 384.159 253.653 382.928 250.006 368.072L245.438 368.914L253.29 393.184C253.29 393.184 260.433 392.406 266.041 390.382L266.042 390.38Z" fill="black"/>
<path d="M436.857 356.175C481.016 333.226 487.672 258.544 451.722 189.368C415.773 120.192 350.832 82.7171 306.673 105.666C262.514 128.614 255.859 203.296 291.808 272.472C327.758 341.649 392.698 379.123 436.857 356.175Z" fill="#FF805C"/>
<path opacity="0.5" d="M436.857 356.175C481.016 333.226 487.672 258.544 451.722 189.368C415.773 120.192 350.832 82.7171 306.673 105.666C262.514 128.614 255.859 203.296 291.808 272.472C327.758 341.649 392.698 379.123 436.857 356.175Z" fill="white"/>
<path opacity="0.1" d="M461.309 210.439C465.878 222.929 481.231 276.444 420.878 303.366C352.27 333.969 270.172 180.223 270.172 180.223L268.679 182.206C268.313 210.052 275.869 241.803 291.808 272.474C327.758 341.65 392.698 379.125 436.857 356.176C476.556 335.545 485.936 273.103 461.309 210.439Z" fill="black"/>
<path d="M281.18 244.539L340.493 224.538L360.159 265.446L310.094 301.308C310.094 301.308 292.216 283.417 281.18 244.539Z" fill="#FF805C"/>
<path d="M362.682 239.09C368.283 250.645 366.25 263.2 358.14 267.13C350.031 271.061 338.916 264.88 333.314 253.325C327.713 241.77 329.746 229.215 337.856 225.284C345.965 221.354 357.081 227.534 362.682 239.09Z" fill="#FF805C"/>
<path opacity="0.2" d="M362.682 239.09C368.283 250.645 366.25 263.2 358.14 267.13C350.031 271.061 338.916 264.88 333.314 253.325C327.713 241.77 329.746 229.215 337.856 225.284C345.965 221.354 357.081 227.534 362.682 239.09Z" fill="white"/>
<path d="M410.385 363.879C369.639 363.879 321.627 328.237 292.47 272.129C274.932 238.382 266.719 202.325 269.343 170.602C271.992 138.58 285.357 114.758 306.975 103.524C351.315 80.4833 416.949 118.628 453.289 188.555C489.629 258.484 483.122 334.12 438.784 357.161C430.021 361.714 420.421 363.879 410.385 363.879ZM335.538 100.284C326.007 100.284 316.906 102.335 308.599 106.653C288.097 117.308 275.402 140.121 272.857 170.892C270.286 201.962 278.363 237.337 295.599 270.502C331.041 338.704 394.544 376.178 437.16 354.032C479.768 331.888 485.596 258.38 450.161 190.182C421.627 135.275 374.905 100.284 335.54 100.284H335.538Z" fill="#263238"/>
<path d="M414.379 122.34C430.496 135.565 444.012 151.847 454.024 170.138C456.866 175.331 459.423 180.678 461.678 186.15C462.105 187.185 463.812 186.732 463.378 185.681C455.348 166.194 443.61 148.317 428.881 133.235C424.69 128.944 420.26 124.896 415.625 121.093C414.755 120.378 413.499 121.619 414.377 122.34H414.379Z" fill="#FF805C"/>
<path d="M466.414 196.64C467.325 198.95 468.235 201.259 469.146 203.569C469.32 204.012 469.736 204.32 470.231 204.185C470.653 204.068 471.022 203.545 470.847 203.1C469.936 200.79 469.026 198.481 468.115 196.171C467.941 195.728 467.525 195.42 467.03 195.555C466.608 195.671 466.239 196.194 466.414 196.64Z" fill="#FF805C"/>
<path opacity="0.6" d="M306.845 498.908C301.514 497.668 295.947 497.883 290.727 499.531C285.508 501.179 280.827 504.199 277.174 508.276C273.522 512.353 271.032 517.336 269.965 522.705C268.898 528.074 269.294 533.63 271.11 538.794L262.208 548.268L275.673 547.224C278.65 551.121 282.52 554.244 286.958 556.33C291.395 558.416 296.27 559.403 301.17 559.208C306.069 559.013 310.85 557.642 315.108 555.21C319.366 552.778 322.976 549.357 325.633 545.236C328.29 541.115 329.917 536.415 330.375 531.533C330.833 526.651 330.109 521.73 328.265 517.187C326.42 512.643 323.51 508.611 319.778 505.429C316.047 502.248 311.605 500.011 306.827 498.908H306.845Z" fill="#FC56BC"/>
<path d="M308.583 522.785C308.655 522.619 308.669 522.434 308.625 522.259C308.58 522.084 308.478 521.929 308.336 521.818C306.755 520.666 304.951 519.857 303.04 519.44C299.766 518.686 296.327 519.261 293.476 521.04C290.626 522.819 288.599 525.656 287.839 528.929C286.785 533.478 289.282 536.566 292.292 537.262C293.536 537.576 294.836 537.592 296.087 537.31C297.338 537.027 298.506 536.454 299.494 535.636C299.519 536.612 299.877 537.55 300.509 538.295C301.14 539.04 302.007 539.547 302.966 539.732C307.672 540.822 313.421 537.665 315.304 529.529C317.334 520.769 312.587 513.223 303.768 511.203C293.176 508.752 283.244 515.29 280.669 526.413C278.525 535.686 283.514 543.928 292.53 546.017C296.108 546.846 299.045 546.86 302.05 546.068C302.24 546.017 302.406 545.899 302.515 545.735C302.625 545.572 302.671 545.374 302.646 545.179L302.353 542.888C302.337 542.772 302.296 542.661 302.234 542.563C302.171 542.464 302.088 542.38 301.991 542.315C301.894 542.25 301.783 542.207 301.668 542.19C301.552 542.172 301.434 542.181 301.322 542.215C298.916 542.825 296.397 542.825 293.992 542.215C286.973 540.588 283.404 534.527 285.117 527.123C287.179 518.203 294.495 513.077 302.527 514.932C309.316 516.504 312.528 521.804 310.911 528.828C310.201 531.893 308.739 534.293 306.897 535.42C306.221 535.891 305.386 536.074 304.575 535.929C304.453 535.909 304.338 535.86 304.24 535.786C304.142 535.712 304.063 535.614 304.011 535.503C303.814 535.1 303.672 534.005 304.927 531.242L308.583 522.785ZM301.491 523.468C302.004 523.585 302.504 523.75 302.985 523.962L300.987 528.544C299.86 531.192 296.75 533.858 294.436 533.322C292.324 532.837 292.434 530.935 292.686 529.849C293.685 525.515 297.721 522.597 301.491 523.468Z" fill="white"/>
<path d="M651 226.616L532.87 243.622L517.019 259.619L651 226.616Z" fill="#FC56BC"/>
<path opacity="0.6" d="M651 226.616L532.87 243.622L517.019 259.619L651 226.616Z" fill="white"/>
<path d="M651 226.616L532.87 243.622L538.352 266.754L651 226.616Z" fill="#FC56BC"/>
<path opacity="0.2" d="M651 226.616L532.87 243.622L538.352 266.754L651 226.616Z" fill="black"/>
<path d="M540.777 199.836L533.922 231.963C533.744 232.802 533.905 233.678 534.372 234.397C534.838 235.117 535.571 235.623 536.409 235.803L597.596 248.861C598.435 249.038 599.31 248.876 600.029 248.41C600.749 247.944 601.254 247.212 601.436 246.374L608.297 214.247C608.473 213.407 608.31 212.532 607.843 211.812C607.376 211.092 606.643 210.587 605.804 210.407L544.617 197.349C543.778 197.172 542.902 197.335 542.183 197.802C541.463 198.269 540.958 199.002 540.777 199.841V199.836Z" fill="#FC56BC"/>
<path opacity="0.4" d="M540.777 199.836L533.922 231.963C533.744 232.802 533.905 233.678 534.372 234.397C534.838 235.117 535.571 235.623 536.409 235.803L597.596 248.861C598.435 249.038 599.31 248.876 600.029 248.41C600.749 247.944 601.254 247.212 601.436 246.374L608.297 214.247C608.473 213.407 608.31 212.532 607.843 211.812C607.376 211.092 606.643 210.587 605.804 210.407L544.617 197.349C543.778 197.172 542.902 197.335 542.183 197.802C541.463 198.269 540.958 199.002 540.777 199.841V199.836Z" fill="black"/>
<path d="M542.285 197.732L562.728 222.828C564.623 225.154 567.257 226.764 570.192 227.391C573.127 228.017 576.188 227.623 578.869 226.274L607.778 211.713C607.311 211.041 606.605 210.572 605.804 210.402L544.617 197.343C543.819 197.173 542.985 197.312 542.285 197.732Z" fill="#FC56BC"/>
<path d="M651 226.616L553.566 249.773L538.352 266.754L651 226.616Z" fill="#FC56BC"/>
<path opacity="0.6" d="M651 226.616L553.566 249.773L538.352 266.754L651 226.616Z" fill="white"/>
<path d="M615.458 248.936L615.72 249.383L604.878 255.735L604.616 255.288L615.458 248.936Z" fill="#FC56BC"/>
<path d="M599.828 258.088L600.09 258.535L596.191 260.819L595.93 260.371L599.828 258.088Z" fill="#FC56BC"/>
<path d="M651 226.616L553.566 249.773L572.506 272.599L651 226.616Z" fill="#FC56BC"/>
<path d="M520.677 280.869C520.809 280.87 520.939 280.845 521.061 280.797L536.928 274.516C537.181 274.414 537.384 274.216 537.493 273.964C537.601 273.713 537.605 273.429 537.504 273.174C537.404 272.92 537.206 272.715 536.956 272.606C536.705 272.496 536.421 272.49 536.166 272.589L520.294 278.869C520.069 278.958 519.883 279.122 519.767 279.334C519.65 279.545 519.612 279.791 519.657 280.028C519.702 280.265 519.829 280.479 520.016 280.633C520.202 280.786 520.436 280.87 520.677 280.869Z" fill="#FC56BC"/>
<path opacity="0.3" d="M520.677 280.869C520.809 280.87 520.939 280.845 521.061 280.797L536.928 274.516C537.181 274.414 537.384 274.216 537.493 273.964C537.601 273.713 537.605 273.429 537.504 273.174C537.404 272.92 537.206 272.715 536.956 272.606C536.705 272.496 536.421 272.49 536.166 272.589L520.294 278.869C520.069 278.958 519.883 279.122 519.767 279.334C519.65 279.545 519.612 279.791 519.657 280.028C519.702 280.265 519.829 280.479 520.016 280.633C520.202 280.786 520.436 280.87 520.677 280.869Z" fill="black"/>
<path d="M521.615 271.77C521.745 271.769 521.873 271.743 521.993 271.692L530.517 268.298C530.645 268.249 530.761 268.175 530.86 268.08C530.959 267.985 531.038 267.872 531.092 267.747C531.147 267.622 531.177 267.487 531.179 267.35C531.181 267.214 531.157 267.078 531.107 266.951C531.056 266.824 530.982 266.708 530.886 266.61C530.791 266.512 530.677 266.434 530.552 266.38C530.426 266.326 530.291 266.297 530.155 266.295C530.018 266.294 529.882 266.319 529.756 266.37L521.231 269.749C520.976 269.85 520.771 270.047 520.661 270.299C520.551 270.551 520.546 270.835 520.646 271.091C520.719 271.29 520.851 271.461 521.024 271.582C521.197 271.704 521.403 271.769 521.615 271.77Z" fill="#FC56BC"/>
<path opacity="0.5" d="M521.615 271.77C521.745 271.769 521.873 271.743 521.993 271.692L530.517 268.298C530.645 268.249 530.761 268.175 530.86 268.08C530.959 267.985 531.038 267.872 531.092 267.747C531.147 267.622 531.177 267.487 531.179 267.35C531.181 267.214 531.157 267.078 531.107 266.951C531.056 266.824 530.982 266.708 530.886 266.61C530.791 266.512 530.677 266.434 530.552 266.38C530.426 266.326 530.291 266.297 530.155 266.295C530.018 266.294 529.882 266.319 529.756 266.37L521.231 269.749C520.976 269.85 520.771 270.047 520.661 270.299C520.551 270.551 520.546 270.835 520.646 271.091C520.719 271.29 520.851 271.461 521.024 271.582C521.197 271.704 521.403 271.769 521.615 271.77Z" fill="white"/>
<path d="M539.435 280.735C539.565 280.733 539.693 280.708 539.814 280.662L555.292 274.516C555.419 274.467 555.536 274.393 555.634 274.298C555.733 274.204 555.812 274.091 555.867 273.965C555.922 273.84 555.951 273.705 555.953 273.569C555.956 273.432 555.931 273.296 555.881 273.169C555.831 273.042 555.756 272.926 555.661 272.828C555.566 272.73 555.452 272.652 555.326 272.598C555.201 272.544 555.066 272.515 554.929 272.514C554.792 272.512 554.657 272.538 554.53 272.589L539.052 278.714C538.827 278.802 538.641 278.967 538.525 279.178C538.408 279.39 538.37 279.635 538.415 279.873C538.46 280.11 538.587 280.324 538.774 280.477C538.96 280.631 539.194 280.714 539.435 280.714V280.735Z" fill="#FC56BC"/>
<path opacity="0.3" d="M539.435 280.735C539.565 280.733 539.693 280.708 539.814 280.662L555.292 274.516C555.419 274.467 555.536 274.393 555.634 274.298C555.733 274.204 555.812 274.091 555.867 273.965C555.922 273.84 555.951 273.705 555.953 273.569C555.956 273.432 555.931 273.296 555.881 273.169C555.831 273.042 555.756 272.926 555.661 272.828C555.566 272.73 555.452 272.652 555.326 272.598C555.201 272.544 555.066 272.515 554.929 272.514C554.792 272.512 554.657 272.538 554.53 272.589L539.052 278.714C538.827 278.802 538.641 278.967 538.525 279.178C538.408 279.39 538.37 279.635 538.415 279.873C538.46 280.11 538.587 280.324 538.774 280.477C538.96 280.631 539.194 280.714 539.435 280.714V280.735Z" fill="black"/>
</svg>
