<svg width="605" height="81" viewBox="0 0 605 81" fill="none" xmlns="http://www.w3.org/2000/svg">
<path d="M36.8451 39.6689L32.9155 47.9997H0.849609L14.5248 16.4054H8.55171L27.5712 0.0581055L31.658 16.4054H24.5846L14.5248 39.6689H36.8451Z" fill="#5CFF80"/>
<path d="M31.1493 32.7942L34.9596 24.4081L67.0222 23.95L53.7997 55.7364L59.7722 55.6511L40.9882 72.2685L36.6683 55.9812L43.7409 55.8801L53.4674 32.4753L31.1493 32.7942Z" fill="#5CFF80"/>
<path d="M96.0767 59.0408C93.3887 59.0408 90.8127 58.6888 88.3487 57.9848C85.8847 57.2488 83.9007 56.3048 82.3967 55.1528L85.0367 49.2968C86.4767 50.3208 88.1727 51.1688 90.1247 51.8408C92.1087 52.4808 94.1087 52.8008 96.1247 52.8008C97.6607 52.8008 98.8927 52.6568 99.8207 52.3688C100.781 52.0488 101.485 51.6168 101.933 51.0728C102.381 50.5288 102.605 49.9048 102.605 49.2008C102.605 48.3048 102.253 47.6008 101.549 47.0888C100.845 46.5448 99.9167 46.1128 98.7647 45.7928C97.6127 45.4408 96.3327 45.1208 94.9247 44.8328C93.5487 44.5128 92.1567 44.1288 90.7487 43.6808C89.3727 43.2328 88.1087 42.6568 86.9567 41.9528C85.8047 41.2488 84.8607 40.3208 84.1247 39.1688C83.4207 38.0168 83.0687 36.5448 83.0687 34.7528C83.0687 32.8328 83.5807 31.0888 84.6047 29.5208C85.6607 27.9208 87.2287 26.6568 89.3087 25.7288C91.4207 24.7688 94.0607 24.2888 97.2287 24.2888C99.3407 24.2888 101.421 24.5448 103.469 25.0568C105.517 25.5368 107.325 26.2728 108.893 27.2648L106.493 33.1688C104.925 32.2728 103.357 31.6168 101.789 31.2008C100.221 30.7528 98.6847 30.5288 97.1807 30.5288C95.6767 30.5288 94.4447 30.7048 93.4847 31.0568C92.5247 31.4088 91.8367 31.8728 91.4207 32.4488C91.0047 32.9928 90.7967 33.6328 90.7967 34.3688C90.7967 35.2328 91.1487 35.9368 91.8527 36.4808C92.5567 36.9928 93.4847 37.4088 94.6367 37.7288C95.7887 38.0488 97.0527 38.3688 98.4287 38.6888C99.8367 39.0088 101.229 39.3768 102.605 39.7928C104.013 40.2088 105.293 40.7688 106.445 41.4728C107.597 42.1768 108.525 43.1048 109.229 44.2568C109.965 45.4088 110.333 46.8648 110.333 48.6248C110.333 50.5128 109.805 52.2408 108.749 53.8088C107.693 55.3768 106.109 56.6408 103.997 57.6008C101.917 58.5608 99.2767 59.0408 96.0767 59.0408ZM128.51 58.4648L117.518 24.8648H125.582L135.134 54.6248H131.102L141.086 24.8648H148.286L157.886 54.6248H153.998L163.79 24.8648H171.23L160.238 58.4648H151.886L143.39 32.3528H145.598L136.862 58.4648H128.51ZM174.83 58.4648L189.806 24.8648H197.486L212.51 58.4648H204.35L192.062 28.8008H195.134L182.798 58.4648H174.83ZM182.318 51.2648L184.382 45.3608H201.662L203.774 51.2648H182.318ZM220.796 58.4648V24.8648H235.34C238.348 24.8648 240.94 25.3608 243.116 26.3528C245.292 27.3128 246.972 28.7048 248.156 30.5288C249.34 32.3528 249.932 34.5288 249.932 37.0568C249.932 39.5528 249.34 41.7128 248.156 43.5368C246.972 45.3608 245.292 46.7688 243.116 47.7608C240.94 48.7208 238.348 49.2008 235.34 49.2008H225.116L228.572 45.6968V58.4648H220.796ZM228.572 46.5608L225.116 42.8648H234.908C237.308 42.8648 239.1 42.3528 240.284 41.3288C241.468 40.3048 242.06 38.8808 242.06 37.0568C242.06 35.2008 241.468 33.7608 240.284 32.7368C239.1 31.7128 237.308 31.2008 234.908 31.2008H225.116L228.572 27.5048V46.5608ZM255.694 58.4648L270.142 38.5448V44.2088L256.318 24.8648H265.15L274.702 38.3528L271.006 38.4008L280.414 24.8648H288.862L275.134 43.8728V38.3048L289.678 58.4648H280.702L270.814 44.2088H274.366L264.622 58.4648H255.694ZM297.521 58.4648V24.8648H312.065C315.073 24.8648 317.665 25.3608 319.841 26.3528C322.017 27.3128 323.697 28.7048 324.881 30.5288C326.065 32.3528 326.657 34.5288 326.657 37.0568C326.657 39.5528 326.065 41.7128 324.881 43.5368C323.697 45.3608 322.017 46.7688 319.841 47.7608C317.665 48.7208 315.073 49.2008 312.065 49.2008H301.841L305.297 45.6968V58.4648H297.521ZM305.297 46.5608L301.841 42.8648H311.633C314.033 42.8648 315.825 42.3528 317.009 41.3288C318.193 40.3048 318.785 38.8808 318.785 37.0568C318.785 35.2008 318.193 33.7608 317.009 32.7368C315.825 31.7128 314.033 31.2008 311.633 31.2008H301.841L305.297 27.5048V46.5608ZM337.009 58.4648V24.8648H351.553C354.561 24.8648 357.153 25.3608 359.329 26.3528C361.505 27.3128 363.185 28.7048 364.369 30.5288C365.553 32.3528 366.145 34.5288 366.145 37.0568C366.145 39.5528 365.553 41.7128 364.369 43.5368C363.185 45.3288 361.505 46.7048 359.329 47.6648C357.153 48.6248 354.561 49.1048 351.553 49.1048H341.329L344.785 45.6968V58.4648H337.009ZM358.369 58.4648L349.969 46.2728H358.273L366.769 58.4648H358.369ZM344.785 46.5608L341.329 42.9128H351.121C353.521 42.9128 355.313 42.4008 356.497 41.3768C357.681 40.3208 358.273 38.8808 358.273 37.0568C358.273 35.2008 357.681 33.7608 356.497 32.7368C355.313 31.7128 353.521 31.2008 351.121 31.2008H341.329L344.785 27.5048V46.5608ZM384.257 38.4008H400.433V44.4488H384.257V38.4008ZM384.833 52.2248H403.121V58.4648H377.105V24.8648H402.497V31.1048H384.833V52.2248ZM425.149 59.0408C422.461 59.0408 419.885 58.6888 417.421 57.9848C414.957 57.2488 412.973 56.3048 411.469 55.1528L414.109 49.2968C415.549 50.3208 417.245 51.1688 419.197 51.8408C421.181 52.4808 423.181 52.8008 425.197 52.8008C426.733 52.8008 427.965 52.6568 428.893 52.3688C429.853 52.0488 430.557 51.6168 431.005 51.0728C431.453 50.5288 431.677 49.9048 431.677 49.2008C431.677 48.3048 431.325 47.6008 430.621 47.0888C429.917 46.5448 428.989 46.1128 427.837 45.7928C426.685 45.4408 425.405 45.1208 423.997 44.8328C422.621 44.5128 421.229 44.1288 419.821 43.6808C418.445 43.2328 417.181 42.6568 416.029 41.9528C414.877 41.2488 413.933 40.3208 413.197 39.1688C412.493 38.0168 412.141 36.5448 412.141 34.7528C412.141 32.8328 412.653 31.0888 413.677 29.5208C414.733 27.9208 416.301 26.6568 418.381 25.7288C420.493 24.7688 423.133 24.2888 426.301 24.2888C428.413 24.2888 430.493 24.5448 432.541 25.0568C434.589 25.5368 436.397 26.2728 437.965 27.2648L435.565 33.1688C433.997 32.2728 432.429 31.6168 430.861 31.2008C429.293 30.7528 427.757 30.5288 426.253 30.5288C424.749 30.5288 423.517 30.7048 422.557 31.0568C421.597 31.4088 420.909 31.8728 420.493 32.4488C420.077 32.9928 419.869 33.6328 419.869 34.3688C419.869 35.2328 420.221 35.9368 420.925 36.4808C421.629 36.9928 422.557 37.4088 423.709 37.7288C424.861 38.0488 426.125 38.3688 427.501 38.6888C428.909 39.0088 430.301 39.3768 431.677 39.7928C433.085 40.2088 434.365 40.7688 435.517 41.4728C436.669 42.1768 437.597 43.1048 438.301 44.2568C439.037 45.4088 439.405 46.8648 439.405 48.6248C439.405 50.5128 438.877 52.2408 437.821 53.8088C436.765 55.3768 435.181 56.6408 433.069 57.6008C430.989 58.5608 428.349 59.0408 425.149 59.0408ZM460.558 59.0408C457.87 59.0408 455.294 58.6888 452.83 57.9848C450.366 57.2488 448.382 56.3048 446.878 55.1528L449.518 49.2968C450.958 50.3208 452.654 51.1688 454.606 51.8408C456.59 52.4808 458.59 52.8008 460.606 52.8008C462.142 52.8008 463.374 52.6568 464.302 52.3688C465.262 52.0488 465.966 51.6168 466.414 51.0728C466.862 50.5288 467.086 49.9048 467.086 49.2008C467.086 48.3048 466.734 47.6008 466.03 47.0888C465.326 46.5448 464.398 46.1128 463.246 45.7928C462.094 45.4408 460.814 45.1208 459.406 44.8328C458.03 44.5128 456.638 44.1288 455.23 43.6808C453.854 43.2328 452.59 42.6568 451.438 41.9528C450.286 41.2488 449.342 40.3208 448.606 39.1688C447.902 38.0168 447.55 36.5448 447.55 34.7528C447.55 32.8328 448.062 31.0888 449.086 29.5208C450.142 27.9208 451.71 26.6568 453.79 25.7288C455.902 24.7688 458.542 24.2888 461.71 24.2888C463.822 24.2888 465.902 24.5448 467.95 25.0568C469.998 25.5368 471.806 26.2728 473.374 27.2648L470.974 33.1688C469.406 32.2728 467.838 31.6168 466.27 31.2008C464.702 30.7528 463.166 30.5288 461.662 30.5288C460.158 30.5288 458.926 30.7048 457.966 31.0568C457.006 31.4088 456.318 31.8728 455.902 32.4488C455.486 32.9928 455.278 33.6328 455.278 34.3688C455.278 35.2328 455.63 35.9368 456.334 36.4808C457.038 36.9928 457.966 37.4088 459.118 37.7288C460.27 38.0488 461.534 38.3688 462.91 38.6888C464.318 39.0088 465.71 39.3768 467.086 39.7928C468.494 40.2088 469.774 40.7688 470.926 41.4728C472.078 42.1768 473.006 43.1048 473.71 44.2568C474.446 45.4088 474.814 46.8648 474.814 48.6248C474.814 50.5128 474.286 52.2408 473.23 53.8088C472.174 55.3768 470.59 56.6408 468.478 57.6008C466.398 58.5608 463.758 59.0408 460.558 59.0408Z" fill="#263238"/>
</svg>
