<svg width="110" height="38" viewBox="0 0 110 38" fill="none" xmlns="http://www.w3.org/2000/svg">
<g id="Group 1189">
<path id="Vector" fill-rule="evenodd" clip-rule="evenodd" d="M6.93683 3.65456L3.18699 5.83708C1.64853 6.73252 0.702148 8.37836 0.702148 10.1584V14.5738V20.9377C0.702148 21.5055 1.02296 22.0246 1.53083 22.2785V22.2785C6.33139 24.6782 12.1481 28.0343 13.0585 28.9292C14.3307 30.1803 14.9767 32.0286 14.7123 33.662C14.4863 35.0577 13.597 35.9349 12.6493 35.6962C11.2353 35.3404 10.7774 32.6996 11.7202 30.3364C12.2133 29.1007 12.21 29.069 11.5367 28.5224C11.1599 28.2163 10.7425 27.9659 10.6091 27.9659C10.4757 27.9659 10.1191 28.6101 9.8162 29.3972C9.13624 31.1641 9.08456 34.3933 9.71614 35.6224C10.6881 37.5135 12.89 38.2644 14.6666 37.3107C16.8507 36.1386 17.4649 32.2558 15.9379 29.2739C14.87 27.1879 13.4221 26.0787 7.91334 23.127C5.35187 21.7542 3.17979 20.5176 3.08635 20.3787C2.9929 20.2395 2.88864 17.5167 2.85409 14.3282L2.82322 11.4649C2.80369 9.6533 3.76567 7.97285 5.33775 7.07236L7.98155 5.55799L11.8364 3.35017C12.6663 2.87485 13.6832 2.86335 14.5236 3.31979V3.31979C15.2673 3.72386 17.5995 5.05027 19.7066 6.2673L21.0383 7.03638C22.5849 7.92964 23.5376 9.58007 23.5376 11.3661V14.4575V17.3461C23.5376 19.2395 22.4681 20.9704 20.7749 21.8176L18.5994 22.9061L14.8167 24.7986C14.2535 25.0804 14.1393 25.8349 14.5939 26.2707V26.2707V26.2707C15.1519 26.8054 15.9882 26.9263 16.6748 26.5716L20.7288 24.4769L23.2262 23.1864C24.8874 22.328 25.9308 20.6144 25.9308 18.7445V14.5572V9.4903C25.9308 8.15031 25.2174 6.91166 24.0583 6.23927V6.23927C19.9986 3.88496 16.8657 2.19613 15.0245 1.22947C13.8421 0.608691 12.4816 0.569373 11.3031 1.19763C10.3562 1.70245 8.96224 2.47577 6.93683 3.65456ZM9.96282 8.05562C5.76411 10.5415 6.11054 9.97021 6.11054 14.4065C6.11054 17.1232 6.22051 18.3363 6.48613 18.5442C6.69285 18.7064 7.80818 19.3533 8.96497 19.9824C10.1218 20.6113 11.5562 21.4342 12.1523 21.8108V21.8108C12.8191 22.2321 13.6643 22.2495 14.3478 21.8562L16.7305 20.485V20.485C18.8924 19.2409 20.2259 16.9376 20.2285 14.4432L20.2286 14.3758L20.2287 14.2344C20.231 11.7835 18.9339 9.51505 16.8204 8.27408V8.27408C16.6773 8.19012 16.5349 8.10838 16.3938 8.029C14.3881 6.90053 11.9431 6.88323 9.96282 8.05562V8.05562ZM10.8429 10.1136V10.1136C9.40224 10.9428 8.51427 12.4784 8.51427 14.1407V14.3809V16.2036C8.51427 16.8831 8.89006 17.507 9.49079 17.8247V17.8247C10.028 18.1088 11.1043 18.7042 11.8828 19.1481L12.0161 19.224C12.8119 19.6775 13.7868 19.6823 14.587 19.2367V19.2367C15.2958 18.8419 16.3877 18.1992 17.0133 17.8081V17.8081C17.7177 17.3679 18.1355 16.5868 18.1106 15.7565L18.0649 14.2318L18.0608 14.0961C18.0102 12.4066 17.0629 10.8721 15.5752 10.0696V10.0696L15.5363 10.0487C14.0662 9.25586 12.2905 9.28044 10.8429 10.1136V10.1136Z" fill="#FF7000"/>
<g id="HYVE">
<path d="M50.4641 9.99805C51.5687 9.99805 52.4641 10.8935 52.4641 11.998V26.4707C52.4641 27.5753 51.5687 28.4707 50.4641 28.4707H49.2967C48.1921 28.4707 47.2967 27.5753 47.2967 26.4707V21.2664H40.2502V26.4707C40.2502 27.5753 39.3548 28.4707 38.2502 28.4707H37.0828C35.9782 28.4707 35.0828 27.5753 35.0828 26.4707V11.998C35.0828 10.8935 35.9782 9.99805 37.0828 9.99805H38.2502C39.3548 9.99805 40.2502 10.8935 40.2502 11.998V16.9385H47.2967V11.998C47.2967 10.8935 48.1921 9.99805 49.2967 9.99805H50.4641Z" fill="#575656"/>
<path d="M66.4179 21.8469V26.4707C66.4179 27.5753 65.5224 28.4707 64.4179 28.4707H63.2504C62.1459 28.4707 61.2504 27.5753 61.2504 26.4707V21.7678L56.0696 13.017C55.2802 11.6837 56.2412 9.99805 57.7906 9.99805H58.5951C59.3026 9.99805 59.9575 10.3719 60.3172 10.9811L64.069 17.3343L67.8208 10.9811C68.1806 10.3719 68.8354 9.99805 69.543 9.99805H69.9091C71.4573 9.99805 72.4185 11.6815 71.6315 13.0147L66.4179 21.8469Z" fill="#575656"/>
<path d="M90.0191 9.99805C91.4515 9.99805 92.4195 11.4597 91.8605 12.7785L85.7264 27.2512C85.4131 27.9905 84.688 28.4707 83.885 28.4707H81.4467C80.6428 28.4707 79.9171 27.9895 79.6043 27.249L73.4907 12.7763C72.9337 11.4578 73.9017 9.99805 75.333 9.99805H76.5631C77.3733 9.99805 78.1035 10.4869 78.4122 11.2361L82.8607 22.0317L87.4086 11.2224C87.7208 10.4805 88.4472 9.99805 89.2521 9.99805H90.0191Z" fill="#575656"/>
<path d="M107.298 24.4331C108.402 24.4331 109.298 25.3474 109.298 26.4519V26.4519C109.298 27.5565 108.402 28.4707 107.298 28.4707H96.6304C95.5258 28.4707 94.6304 27.5753 94.6304 26.4707V11.998C94.6304 10.8935 95.5258 9.99805 96.6304 9.99805H106.958C108.063 9.99805 108.958 10.9123 108.958 12.0168V12.0168C108.958 13.1214 108.063 14.0356 106.958 14.0356H99.7456V17.1496H105.909C106.988 17.1496 107.862 18.0239 107.862 19.1024V19.1024C107.862 20.181 106.988 21.0553 105.909 21.0553H99.7456V24.4331H107.298Z" fill="#575656"/>
</g>
</g>
</svg>
